<svg xmlns="http://www.w3.org/2000/svg" width="1470" height="1078" viewBox="0 0 1470 1078"><defs><filter id="sh" x="-10%" y="-10%" width="120%" height="130%"><feDropShadow dx="0" dy="2" stdDeviation="3" flood-color="#000" flood-opacity="0.45"/></filter><pattern id="dots" width="22" height="22" patternUnits="userSpaceOnUse"><circle cx="1.2" cy="1.2" r="1.1" fill="#1a2232"/></pattern><marker id="a58a6ff" viewBox="0 0 10 10" refX="9" refY="5" markerWidth="7" markerHeight="7" orient="auto"><path d="M0,1 L9,5 L0,9 z" fill="#58a6ff"/></marker><marker id="abc8cff" viewBox="0 0 10 10" refX="9" refY="5" markerWidth="7" markerHeight="7" orient="auto"><path d="M0,1 L9,5 L0,9 z" fill="#bc8cff"/></marker><marker id="aff7b72" viewBox="0 0 10 10" refX="9" refY="5" markerWidth="7" markerHeight="7" orient="auto"><path d="M0,1 L9,5 L0,9 z" fill="#ff7b72"/></marker><marker id="a8b98a9" viewBox="0 0 10 10" refX="9" refY="5" markerWidth="7" markerHeight="7" orient="auto"><path d="M0,1 L9,5 L0,9 z" fill="#8b98a9"/></marker><marker id="ae3b341" viewBox="0 0 10 10" refX="9" refY="5" markerWidth="7" markerHeight="7" orient="auto"><path d="M0,1 L9,5 L0,9 z" fill="#e3b341"/></marker></defs><rect width="1470" height="1078" rx="18" fill="#0b0f17"/><rect width="1470" height="1078" fill="url(#dots)"/><text x="36" y="46" font-family="'Segoe UI', 'Inter', system-ui, -apple-system, Helvetica, Arial, sans-serif" font-size="22" font-weight="700" fill="#e6edf3">Flow — an order and a card payment</text><text x="36" y="70" font-family="'Segoe UI', 'Inter', system-ui, -apple-system, Helvetica, Arial, sans-serif" font-size="13" fill="#8b98a9">No remote call runs inside a database transaction; every state change goes through the state machine</text>
<path d="M172.5,194 L172.5,1048" stroke="rgba(88,166,255,0.45)" stroke-width="1.3" stroke-dasharray="4 6"/>
<path d="M397.5,194 L397.5,1048" stroke="rgba(63,185,80,0.45)" stroke-width="1.3" stroke-dasharray="4 6"/>
<path d="M622.5,194 L622.5,1048" stroke="rgba(63,185,80,0.45)" stroke-width="1.3" stroke-dasharray="4 6"/>
<path d="M847.5,194 L847.5,1048" stroke="rgba(188,140,255,0.45)" stroke-width="1.3" stroke-dasharray="4 6"/>
<path d="M1072.5,194 L1072.5,1048" stroke="rgba(255,123,114,0.45)" stroke-width="1.3" stroke-dasharray="4 6"/>
<path d="M1297.5,194 L1297.5,1048" stroke="rgba(227,179,65,0.45)" stroke-width="1.3" stroke-dasharray="4 6"/>
<rect x="78.0" y="736" width="1314.0" height="174" rx="10" fill="rgba(240,136,62,0.05)" stroke="rgba(240,136,62,0.5)" stroke-width="1.2" stroke-dasharray="5 4"/>
<rect x="78.0" y="736" width="320" height="20" rx="6" fill="rgba(240,136,62,0.18)"/>
<text x="87.0" y="750" text-anchor="start" font-family="'Segoe UI', 'Inter', system-ui, -apple-system, Helvetica, Arial, sans-serif" font-size="10.5" font-weight="700" fill="#f0883e">LOOP  BankCallbackSimulator · every 5 s · ShedLock</text>
<rect x="78.0" y="930" width="1314.0" height="82" rx="10" fill="rgba(227,179,65,0.05)" stroke="rgba(227,179,65,0.5)" stroke-width="1.2" stroke-dasharray="5 4"/>
<rect x="78.0" y="930" width="266" height="20" rx="6" fill="rgba(227,179,65,0.18)"/>
<text x="87.0" y="944" text-anchor="start" font-family="'Segoe UI', 'Inter', system-ui, -apple-system, Helvetica, Arial, sans-serif" font-size="10.5" font-weight="700" fill="#e3b341">LOOP  OutboxPoller · every 5 s · ShedLock</text>
<path d="M402.5,978.0 L1291.5,978.0" fill="none" stroke="#e3b341" stroke-width="1.6" stroke-linecap="round" stroke-linejoin="round" marker-end="url(#ae3b341)"/>
<path d="M402.5,876.0 L1066.5,876.0" fill="none" stroke="#ff7b72" stroke-width="1.6" stroke-linecap="round" stroke-linejoin="round" marker-end="url(#aff7b72)"/>
<path d="M401.5,822.0 L437.5,822.0 Q443.5,822.0 443.5,828.0 L443.5,834.0 Q443.5,840.0 437.5,840.0 L403.5,840.0" fill="none" stroke="#58a6ff" stroke-width="1.6" stroke-linecap="round" stroke-linejoin="round" marker-end="url(#a58a6ff)"/>
<path d="M402.5,784.0 L1066.5,784.0" fill="none" stroke="#ff7b72" stroke-width="1.6" stroke-linecap="round" stroke-linejoin="round" marker-end="url(#aff7b72)"/>
<path d="M392.5,646.0 L178.5,646.0" fill="none" stroke="#8b98a9" stroke-width="1.6" stroke-dasharray="6 5" stroke-linecap="round" stroke-linejoin="round" marker-end="url(#a8b98a9)"/>
<path d="M402.5,600.0 L1066.5,600.0" fill="none" stroke="#ff7b72" stroke-width="1.6" stroke-linecap="round" stroke-linejoin="round" marker-end="url(#aff7b72)"/>
<path d="M842.5,554.0 L403.5,554.0" fill="none" stroke="#8b98a9" stroke-width="1.6" stroke-dasharray="6 5" stroke-linecap="round" stroke-linejoin="round" marker-end="url(#a8b98a9)"/>
<path d="M851.5,500.0 L887.5,500.0 Q893.5,500.0 893.5,506.0 L893.5,512.0 Q893.5,518.0 887.5,518.0 L853.5,518.0" fill="none" stroke="#58a6ff" stroke-width="1.6" stroke-linecap="round" stroke-linejoin="round" marker-end="url(#a58a6ff)"/>
<path d="M402.5,462.0 L841.5,462.0" fill="none" stroke="#bc8cff" stroke-width="1.6" stroke-linecap="round" stroke-linejoin="round" marker-end="url(#abc8cff)"/>
<path d="M402.5,416.0 L1066.5,416.0" fill="none" stroke="#ff7b72" stroke-width="1.6" stroke-linecap="round" stroke-linejoin="round" marker-end="url(#aff7b72)"/>
<path d="M177.5,370.0 L391.5,370.0" fill="none" stroke="#58a6ff" stroke-width="1.6" stroke-linecap="round" stroke-linejoin="round" marker-end="url(#a58a6ff)"/>
<path d="M402.5,324.0 L1066.5,324.0" fill="none" stroke="#ff7b72" stroke-width="1.6" stroke-linecap="round" stroke-linejoin="round" marker-end="url(#aff7b72)"/>
<path d="M402.5,278.0 L616.5,278.0" fill="none" stroke="#bc8cff" stroke-width="1.6" stroke-linecap="round" stroke-linejoin="round" marker-end="url(#abc8cff)"/>
<path d="M177.5,232.0 L391.5,232.0" fill="none" stroke="#58a6ff" stroke-width="1.6" stroke-linecap="round" stroke-linejoin="round" marker-end="url(#a58a6ff)"/>
<rect x="73.0" y="110" width="199" height="84" rx="11" fill="#121826" stroke="rgba(88,166,255,0.6)" stroke-width="1.3" filter="url(#sh)"/>
<rect x="74.0" y="111" width="197" height="3" rx="1.5" fill="rgba(88,166,255,0.85)"/>
<g transform="translate(157.5,123.0) scale(1.2500)"><path d="M8 7l-5 5 5 5M16 7l5 5-5 5M14 4l-4 16" fill="none" stroke="#58a6ff" stroke-width="1.8" stroke-linecap="round" stroke-linejoin="round"/></g>
<text x="172.5" y="170" text-anchor="middle" font-family="'Segoe UI', 'Inter', system-ui, -apple-system, Helvetica, Arial, sans-serif" font-size="13.5" font-weight="600" fill="#e6edf3">Merchant backend</text>
<text x="172.5" y="186" text-anchor="middle" font-family="'Segoe UI', 'Inter', system-ui, -apple-system, Helvetica, Arial, sans-serif" font-size="11" fill="#8b98a9">API key</text>
<rect x="298.0" y="110" width="199" height="84" rx="11" fill="#121826" stroke="rgba(63,185,80,0.6)" stroke-width="1.3" filter="url(#sh)"/>
<rect x="299.0" y="111" width="197" height="3" rx="1.5" fill="rgba(63,185,80,0.85)"/>
<g transform="translate(382.5,123.0) scale(1.2500)" fill="#6db33f"><path d="m23.693 10.7058-4.73-8.1844c-.4094-.7106-1.4166-1.2942-2.2402-1.2942H7.2725c-.819 0-1.8308.5836-2.2402 1.2942L.307 10.7058c-.4095.7106-.4095 1.873 0 2.5837l4.7252 8.189c.4094.7107 1.4166 1.2943 2.2402 1.2943h9.455c.819 0 1.826-.5836 2.2402-1.2942l4.7252-8.189c.4095-.7107.4095-1.8732 0-2.5838zM10.9763 5.7547c0-.5365.4377-.9742.9742-.9742s.9742.4377.9742.9742v5.8217c0 .5366-.4377.9742-.9742.9742s-.9742-.4376-.9742-.9742zm.9742 12.4294c-3.6427 0-6.6077-2.965-6.6077-6.6077.0047-2.0896.993-4.0521 2.6685-5.304a.8657.8657 0 0 1 1.2142.1788.8657.8657 0 0 1-.1788 1.2143c-2.1602 1.6048-2.612 4.6592-1.0072 6.8194 1.6049 2.1603 4.6593 2.612 6.8195 1.0072 1.2378-.9177 1.9673-2.372 1.9673-3.9157a4.8972 4.8972 0 0 0-1.9861-3.925c-.386-.2824-.466-.8284-.1836-1.2143.2824-.386.8283-.466 1.2143-.1835 1.6895 1.2471 2.6826 3.2238 2.6873 5.3228 0 3.6474-2.965 6.6077-6.6077 6.6077z"/></g>
<text x="397.5" y="170" text-anchor="middle" font-family="'Segoe UI', 'Inter', system-ui, -apple-system, Helvetica, Arial, sans-serif" font-size="13.5" font-weight="600" fill="#e6edf3">payment-service</text>
<text x="397.5" y="186" text-anchor="middle" font-family="'Segoe UI', 'Inter', system-ui, -apple-system, Helvetica, Arial, sans-serif" font-size="11" fill="#8b98a9">Order / PaymentController</text>
<rect x="523.0" y="110" width="199" height="84" rx="11" fill="#121826" stroke="rgba(63,185,80,0.6)" stroke-width="1.3" filter="url(#sh)"/>
<rect x="524.0" y="111" width="197" height="3" rx="1.5" fill="rgba(63,185,80,0.85)"/>
<g transform="translate(607.5,123.0) scale(1.2500)" fill="#6db33f"><path d="m23.693 10.7058-4.73-8.1844c-.4094-.7106-1.4166-1.2942-2.2402-1.2942H7.2725c-.819 0-1.8308.5836-2.2402 1.2942L.307 10.7058c-.4095.7106-.4095 1.873 0 2.5837l4.7252 8.189c.4094.7107 1.4166 1.2943 2.2402 1.2943h9.455c.819 0 1.826-.5836 2.2402-1.2942l4.7252-8.189c.4095-.7107.4095-1.8732 0-2.5838zM10.9763 5.7547c0-.5365.4377-.9742.9742-.9742s.9742.4377.9742.9742v5.8217c0 .5366-.4377.9742-.9742.9742s-.9742-.4376-.9742-.9742zm.9742 12.4294c-3.6427 0-6.6077-2.965-6.6077-6.6077.0047-2.0896.993-4.0521 2.6685-5.304a.8657.8657 0 0 1 1.2142.1788.8657.8657 0 0 1-.1788 1.2143c-2.1602 1.6048-2.612 4.6592-1.0072 6.8194 1.6049 2.1603 4.6593 2.612 6.8195 1.0072 1.2378-.9177 1.9673-2.372 1.9673-3.9157a4.8972 4.8972 0 0 0-1.9861-3.925c-.386-.2824-.466-.8284-.1836-1.2143.2824-.386.8283-.466 1.2143-.1835 1.6895 1.2471 2.6826 3.2238 2.6873 5.3228 0 3.6474-2.965 6.6077-6.6077 6.6077z"/></g>
<text x="622.5" y="170" text-anchor="middle" font-family="'Segoe UI', 'Inter', system-ui, -apple-system, Helvetica, Arial, sans-serif" font-size="13.5" font-weight="600" fill="#e6edf3">merchant-service</text>
<text x="622.5" y="186" text-anchor="middle" font-family="'Segoe UI', 'Inter', system-ui, -apple-system, Helvetica, Arial, sans-serif" font-size="11" fill="#8b98a9">internal API</text>
<rect x="748.0" y="110" width="199" height="84" rx="11" fill="#121826" stroke="rgba(188,140,255,0.6)" stroke-width="1.3" filter="url(#sh)"/>
<rect x="749.0" y="111" width="197" height="3" rx="1.5" fill="rgba(188,140,255,0.85)"/>
<g transform="translate(832.5,123.0) scale(1.2500)"><rect x="4.5" y="10" width="15" height="11" rx="2" fill="none" stroke="#bc8cff" stroke-width="1.8"/><path d="M8 10V7a4 4 0 0 1 8 0v3" fill="none" stroke="#bc8cff" stroke-width="1.8"/></g>
<text x="847.5" y="170" text-anchor="middle" font-family="'Segoe UI', 'Inter', system-ui, -apple-system, Helvetica, Arial, sans-serif" font-size="13.5" font-weight="600" fill="#e6edf3">vault-service</text>
<text x="847.5" y="186" text-anchor="middle" font-family="'Segoe UI', 'Inter', system-ui, -apple-system, Helvetica, Arial, sans-serif" font-size="11" fill="#8b98a9">internal API · PCI</text>
<rect x="973.0" y="110" width="199" height="84" rx="11" fill="#121826" stroke="rgba(255,123,114,0.6)" stroke-width="1.3" filter="url(#sh)"/>
<rect x="974.0" y="111" width="197" height="3" rx="1.5" fill="rgba(255,123,114,0.85)"/>
<g transform="translate(1057.5,123.0) scale(1.2500)" fill="#6b9bff"><path d="M23.5594 14.7228a.5269.5269 0 0 0-.0563-.1191c-.139-.2632-.4768-.3418-1.0074-.2321-1.6533.3411-2.2935.1312-2.5256-.0191 1.342-2.0482 2.445-4.522 3.0411-6.8297.2714-1.0507.7982-3.5237.1222-4.7316a1.5641 1.5641 0 0 0-.1509-.235C21.6931.9086 19.8007.0248 17.5099.0005c-1.4947-.0158-2.7705.3461-3.1161.4794a9.449 9.449 0 0 0-.5159-.0816 8.044 8.044 0 0 0-1.3114-.1278c-1.1822-.0184-2.2038.2642-3.0498.8406-.8573-.3211-4.7888-1.645-7.2219.0788C.9359 2.1526.3086 3.8733.4302 6.3043c.0409.818.5069 3.334 1.2423 5.7436.4598 1.5065.9387 2.7019 1.4334 3.582.553.9942 1.1259 1.5933 1.7143 1.7895.4474.1491 1.1327.1441 1.8581-.7279.8012-.9635 1.5903-1.8258 1.9446-2.2069.4351.2355.9064.3625 1.39.3772a.0569.0569 0 0 0 .0004.0041 11.0312 11.0312 0 0 0-.2472.3054c-.3389.4302-.4094.5197-1.5002.7443-.3102.064-1.1344.2339-1.1464.8115-.0025.1224.0329.2309.0919.3268.2269.4231.9216.6097 1.015.6331 1.3345.3335 2.5044.092 3.3714-.6787-.017 2.231.0775 4.4174.3454 5.0874.2212.5529.7618 1.9045 2.4692 1.9043.2505 0 .5263-.0291.8296-.0941 1.7819-.3821 2.5557-1.1696 2.855-2.9059.1503-.8707.4016-2.8753.5388-4.1012.0169-.0703.0357-.1207.057-.1362.0007-.0005.0697-.0471.4272.0307a.3673.3673 0 0 0 .0443.0068l.2539.0223.0149.001c.8468.0384 1.9114-.1426 2.5312-.4308.6438-.2988 1.8057-1.0323 1.5951-1.6698zM2.371 11.8765c-.7435-2.4358-1.1779-4.8851-1.2123-5.5719-.1086-2.1714.4171-3.6829 1.5623-4.4927 1.8367-1.2986 4.8398-.5408 6.108-.13-.0032.0032-.0066.0061-.0098.0094-2.0238 2.044-1.9758 5.536-1.9708 5.7495-.0002.0823.0066.1989.0162.3593.0348.5873.0996 1.6804-.0735 2.9184-.1609 1.1504.1937 2.2764.9728 3.0892.0806.0841.1648.1631.2518.2374-.3468.3714-1.1004 1.1926-1.9025 2.1576-.5677.6825-.9597.5517-1.0886.5087-.3919-.1307-.813-.5871-1.2381-1.3223-.4796-.839-.9635-2.0317-1.4155-3.5126zm6.0072 5.0871c-.1711-.0428-.3271-.1132-.4322-.1772.0889-.0394.2374-.0902.4833-.1409 1.2833-.2641 1.4815-.4506 1.9143-1.0002.0992-.126.2116-.2687.3673-.4426a.3549.3549 0 0 0 .0737-.1298c.1708-.1513.2724-.1099.4369-.0417.156.0646.3078.26.3695.4752.0291.1016.0619.2945-.0452.4444-.9043 1.2658-2.2216 1.2494-3.1676 1.0128zm2.094-3.988-.0525.141c-.133.3566-.2567.6881-.3334 1.003-.6674-.0021-1.3168-.2872-1.8105-.8024-.6279-.6551-.9131-1.5664-.7825-2.5004.1828-1.3079.1153-2.4468.079-3.0586-.005-.0857-.0095-.1607-.0122-.2199.2957-.2621 1.6659-.9962 2.6429-.7724.4459.1022.7176.4057.8305.928.5846 2.7038.0774 3.8307-.3302 4.7363-.084.1866-.1633.3629-.2311.5454zm7.3637 4.5725c-.0169.1768-.0358.376-.0618.5959l-.146.4383a.3547.3547 0 0 0-.0182.1077c-.0059.4747-.054.6489-.115.8693-.0634.2292-.1353.4891-.1794 1.0575-.11 1.4143-.8782 2.2267-2.4172 2.5565-1.5155.3251-1.7843-.4968-2.0212-1.2217a6.5824 6.5824 0 0 0-.0769-.2266c-.2154-.5858-.1911-1.4119-.1574-2.5551.0165-.5612-.0249-1.9013-.3302-2.6462.0044-.2932.0106-.5909.019-.8918a.3529.3529 0 0 0-.0153-.1126 1.4927 1.4927 0 0 0-.0439-.208c-.1226-.4283-.4213-.7866-.7797-.9351-.1424-.059-.4038-.1672-.7178-.0869.067-.276.1831-.5875.309-.9249l.0529-.142c.0595-.16.134-.3257.213-.5012.4265-.9476 1.0106-2.2453.3766-5.1772-.2374-1.0981-1.0304-1.6343-2.2324-1.5098-.7207.0746-1.3799.3654-1.7088.5321a5.6716 5.6716 0 0 0-.1958.1041c.0918-1.1064.4386-3.1741 1.7357-4.4823a4.0306 4.0306 0 0 1 .3033-.276.3532.3532 0 0 0 .1447-.0644c.7524-.5706 1.6945-.8506 2.802-.8325.4091.0067.8017.0339 1.1742.081 1.939.3544 3.2439 1.4468 4.0359 2.3827.8143.9623 1.2552 1.9315 1.4312 2.4543-1.3232-.1346-2.2234.1268-2.6797.779-.9926 1.4189.543 4.1729 1.2811 5.4964.1353.2426.2522.4522.2889.5413.2403.5825.5515.9713.7787 1.2552.0696.087.1372.1714.1885.245-.4008.1155-1.1208.3825-1.0552 1.717-.0123.1563-.0423.4469-.0834.8148-.0461.2077-.0702.4603-.0994.7662zm.8905-1.6211c-.0405-.8316.2691-.9185.5967-1.0105a2.8566 2.8566 0 0 0 .135-.0406 1.202 1.202 0 0 0 .1342.103c.5703.3765 1.5823.4213 3.0068.1344-.2016.1769-.5189.3994-.9533.6011-.4098.1903-1.0957.333-1.7473.3636-.7197.0336-1.0859-.0807-1.1721-.151zm.5695-9.2712c-.0059.3508-.0542.6692-.1054 1.0017-.055.3576-.112.7274-.1264 1.1762-.0142.4368.0404.8909.0932 1.3301.1066.887.216 1.8003-.2075 2.7014a3.5272 3.5272 0 0 1-.1876-.3856c-.0527-.1276-.1669-.3326-.3251-.6162-.6156-1.1041-2.0574-3.6896-1.3193-4.7446.3795-.5427 1.3408-.5661 2.1781-.463zm.2284 7.0137a12.3762 12.3762 0 0 0-.0853-.1074l-.0355-.0444c.7262-1.1995.5842-2.3862.4578-3.4385-.0519-.4318-.1009-.8396-.0885-1.2226.0129-.4061.0666-.7543.1185-1.0911.0639-.415.1288-.8443.1109-1.3505.0134-.0531.0188-.1158.0118-.1902-.0457-.4855-.5999-1.938-1.7294-3.253-.6076-.7073-1.4896-1.4972-2.6889-2.0395.5251-.1066 1.2328-.2035 2.0244-.1859 2.0515.0456 3.6746.8135 4.8242 2.2824a.908.908 0 0 1 .0667.1002c.7231 1.3556-.2762 6.2751-2.9867 10.5405zm-8.8166-6.1162c-.025.1794-.3089.4225-.6211.4225a.5821.5821 0 0 1-.0809-.0056c-.1873-.026-.3765-.144-.5059-.3156-.0458-.0605-.1203-.178-.1055-.2844.0055-.0401.0261-.0985.0925-.1488.1182-.0894.3518-.1226.6096-.0867.3163.0441.6426.1938.6113.4186zm7.9305-.4114c.0111.0792-.049.201-.1531.3102-.0683.0717-.212.1961-.4079.2232a.5456.5456 0 0 1-.075.0052c-.2935 0-.5414-.2344-.5607-.3717-.024-.1765.2641-.3106.5611-.352.297-.0414.6111.0088.6356.1851z"/></g>
<text x="1072.5" y="170" text-anchor="middle" font-family="'Segoe UI', 'Inter', system-ui, -apple-system, Helvetica, Arial, sans-serif" font-size="13.5" font-weight="600" fill="#e6edf3">payflo_payment</text>
<text x="1072.5" y="186" text-anchor="middle" font-family="'Segoe UI', 'Inter', system-ui, -apple-system, Helvetica, Arial, sans-serif" font-size="11" fill="#8b98a9">PostgreSQL</text>
<rect x="1198.0" y="110" width="199" height="84" rx="11" fill="#121826" stroke="rgba(227,179,65,0.6)" stroke-width="1.3" filter="url(#sh)"/>
<rect x="1199.0" y="111" width="197" height="3" rx="1.5" fill="rgba(227,179,65,0.85)"/>
<g transform="translate(1282.5,123.0) scale(1.2500)"><rect x="2.5" y="4" width="19" height="4" rx="1.5" fill="none" stroke="#e3b341" stroke-width="1.8"/><rect x="2.5" y="10" width="19" height="4" rx="1.5" fill="none" stroke="#e3b341" stroke-width="1.8"/><rect x="2.5" y="16" width="19" height="4" rx="1.5" fill="none" stroke="#e3b341" stroke-width="1.8"/><path d="M6 6h2M6 12h5M6 18h8" stroke="#e3b341" stroke-width="1.8" stroke-linecap="round"/></g>
<text x="1297.5" y="170" text-anchor="middle" font-family="'Segoe UI', 'Inter', system-ui, -apple-system, Helvetica, Arial, sans-serif" font-size="13.5" font-weight="600" fill="#e6edf3">Kafka</text>
<text x="1297.5" y="186" text-anchor="middle" font-family="'Segoe UI', 'Inter', system-ui, -apple-system, Helvetica, Arial, sans-serif" font-size="11" fill="#8b98a9">*.events</text>
<circle cx="158.5" cy="232" r="9" fill="rgba(88,166,255,0.2)" stroke="#58a6ff" stroke-width="1"/><text x="158.5" y="235.6" text-anchor="middle" font-family="'Segoe UI', 'Inter', system-ui, -apple-system, Helvetica, Arial, sans-serif" font-size="9.5" font-weight="700" fill="#58a6ff">1</text>
<rect x="118.5" y="211.0" width="332.9" height="16" rx="4" fill="#0b0f17" opacity="0.85"/>
<text x="285.0" y="223" text-anchor="middle" font-family="'Segoe UI', 'Inter', system-ui, -apple-system, Helvetica, Arial, sans-serif" font-size="11.5" fill="#e6edf3">POST /v1/orders { amount, customer? }  (via gateway)</text>
<circle cx="383.5" cy="278" r="9" fill="rgba(188,140,255,0.2)" stroke="#bc8cff" stroke-width="1"/><text x="383.5" y="281.6" text-anchor="middle" font-family="'Segoe UI', 'Inter', system-ui, -apple-system, Helvetica, Arial, sans-serif" font-size="9.5" font-weight="700" fill="#bc8cff">2</text>
<rect x="383.9" y="257.0" width="252.2" height="16" rx="4" fill="#0b0f17" opacity="0.85"/>
<text x="510.0" y="269" text-anchor="middle" font-family="'Segoe UI', 'Inter', system-ui, -apple-system, Helvetica, Arial, sans-serif" font-size="11.5" fill="#e6edf3">POST /internal/customers/find-or-create</text>
<circle cx="383.5" cy="324" r="9" fill="rgba(255,123,114,0.2)" stroke="#ff7b72" stroke-width="1"/><text x="383.5" y="327.6" text-anchor="middle" font-family="'Segoe UI', 'Inter', system-ui, -apple-system, Helvetica, Arial, sans-serif" font-size="9.5" font-weight="700" fill="#ff7b72">3</text>
<rect x="593.4" y="303.0" width="283.2" height="16" rx="4" fill="#0b0f17" opacity="0.85"/>
<text x="735.0" y="315" text-anchor="middle" font-family="'Segoe UI', 'Inter', system-ui, -apple-system, Helvetica, Arial, sans-serif" font-size="11.5" fill="#e6edf3">tx: order CREATED + ORDER_CREATED outbox row</text>
<circle cx="158.5" cy="370" r="9" fill="rgba(88,166,255,0.2)" stroke="#58a6ff" stroke-width="1"/><text x="158.5" y="373.6" text-anchor="middle" font-family="'Segoe UI', 'Inter', system-ui, -apple-system, Helvetica, Arial, sans-serif" font-size="9.5" font-weight="700" fill="#58a6ff">4</text>
<rect x="149.6" y="349.0" width="270.8" height="16" rx="4" fill="#0b0f17" opacity="0.85"/>
<text x="285.0" y="361" text-anchor="middle" font-family="'Segoe UI', 'Inter', system-ui, -apple-system, Helvetica, Arial, sans-serif" font-size="11.5" fill="#e6edf3">POST /v1/payments { orderId, CARD, token }</text>
<circle cx="383.5" cy="416" r="9" fill="rgba(255,123,114,0.2)" stroke="#ff7b72" stroke-width="1"/><text x="383.5" y="419.6" text-anchor="middle" font-family="'Segoe UI', 'Inter', system-ui, -apple-system, Helvetica, Arial, sans-serif" font-size="9.5" font-weight="700" fill="#ff7b72">5</text>
<rect x="571.6" y="395.0" width="326.7" height="16" rx="4" fill="#0b0f17" opacity="0.85"/>
<text x="735.0" y="407" text-anchor="middle" font-family="'Segoe UI', 'Inter', system-ui, -apple-system, Helvetica, Arial, sans-serif" font-size="11.5" fill="#e6edf3">tx 1 · lock order · Payment · CREATED → AUTHORIZING</text>
<circle cx="383.5" cy="462" r="9" fill="rgba(188,140,255,0.2)" stroke="#bc8cff" stroke-width="1"/><text x="383.5" y="465.6" text-anchor="middle" font-family="'Segoe UI', 'Inter', system-ui, -apple-system, Helvetica, Arial, sans-serif" font-size="9.5" font-weight="700" fill="#bc8cff">6</text>
<rect x="452.9" y="441.0" width="339.1" height="16" rx="4" fill="#0b0f17" opacity="0.85"/>
<text x="622.5" y="453" text-anchor="middle" font-family="'Segoe UI', 'Inter', system-ui, -apple-system, Helvetica, Arial, sans-serif" font-size="11.5" fill="#e6edf3">no tx · POST /internal/vault/charge { token, amount }</text>
<circle cx="833.5" cy="508" r="9" fill="rgba(88,166,255,0.2)" stroke="#58a6ff" stroke-width="1"/><text x="833.5" y="511.6" text-anchor="middle" font-family="'Segoe UI', 'Inter', system-ui, -apple-system, Helvetica, Arial, sans-serif" font-size="9.5" font-weight="700" fill="#58a6ff">7</text>
<text x="903.5" y="513" text-anchor="start" font-family="'Segoe UI', 'Inter', system-ui, -apple-system, Helvetica, Arial, sans-serif" font-size="11.5" fill="#e6edf3">decrypt PAN · mock acquirer · bulkhead</text>
<circle cx="861.5" cy="554" r="9" fill="rgba(139,152,169,0.2)" stroke="#8b98a9" stroke-width="1"/><text x="861.5" y="557.6" text-anchor="middle" font-family="'Segoe UI', 'Inter', system-ui, -apple-system, Helvetica, Arial, sans-serif" font-size="9.5" font-weight="700" fill="#8b98a9">8</text>
<rect x="496.4" y="533.0" width="252.2" height="16" rx="4" fill="#0b0f17" opacity="0.85"/>
<text x="622.5" y="545" text-anchor="middle" font-family="'Segoe UI', 'Inter', system-ui, -apple-system, Helvetica, Arial, sans-serif" font-size="11.5" fill="#8b98a9">PENDING (processorReference) or FAILURE</text>
<circle cx="383.5" cy="600" r="9" fill="rgba(255,123,114,0.2)" stroke="#ff7b72" stroke-width="1"/><text x="383.5" y="603.6" text-anchor="middle" font-family="'Segoe UI', 'Inter', system-ui, -apple-system, Helvetica, Arial, sans-serif" font-size="9.5" font-weight="700" fill="#ff7b72">9</text>
<rect x="593.4" y="579.0" width="283.2" height="16" rx="4" fill="#0b0f17" opacity="0.85"/>
<text x="735.0" y="591" text-anchor="middle" font-family="'Segoe UI', 'Inter', system-ui, -apple-system, Helvetica, Arial, sans-serif" font-size="11.5" fill="#e6edf3">tx 2 · apply result + PAYMENT_CREATED outbox</text>
<circle cx="411.5" cy="646" r="9" fill="rgba(139,152,169,0.2)" stroke="#8b98a9" stroke-width="1"/><text x="411.5" y="649.6" text-anchor="middle" font-family="'Segoe UI', 'Inter', system-ui, -apple-system, Helvetica, Arial, sans-serif" font-size="9.5" font-weight="700" fill="#8b98a9">10</text>
<rect x="131.0" y="625.0" width="308.1" height="16" rx="4" fill="#0b0f17" opacity="0.85"/>
<text x="285.0" y="637" text-anchor="middle" font-family="'Segoe UI', 'Inter', system-ui, -apple-system, Helvetica, Arial, sans-serif" font-size="11.5" fill="#8b98a9">201 · status AUTHORIZING (or FAILED + errorCode)</text>
<rect x="327.5" y="676" width="590.0" height="30" rx="8" fill="rgba(255,123,114,0.12)" stroke="rgba(255,123,114,0.55)" stroke-width="1.1"/>
<text x="622.5" y="696" text-anchor="middle" font-family="'Segoe UI', 'Inter', system-ui, -apple-system, Helvetica, Arial, sans-serif" font-size="11.5" fill="#ff7b72">vault down or circuit open → compensate: FAILED + PAYMENT_AUTHORIZATION_COMPENSATED</text>
<circle cx="383.5" cy="784" r="9" fill="rgba(255,123,114,0.2)" stroke="#ff7b72" stroke-width="1"/><text x="383.5" y="787.6" text-anchor="middle" font-family="'Segoe UI', 'Inter', system-ui, -apple-system, Helvetica, Arial, sans-serif" font-size="9.5" font-weight="700" fill="#ff7b72">11</text>
<rect x="602.7" y="763.0" width="264.6" height="16" rx="4" fill="#0b0f17" opacity="0.85"/>
<text x="735.0" y="775" text-anchor="middle" font-family="'Segoe UI', 'Inter', system-ui, -apple-system, Helvetica, Arial, sans-serif" font-size="11.5" fill="#e6edf3">AUTHORIZING past the simulated bank delay</text>
<circle cx="383.5" cy="830" r="9" fill="rgba(88,166,255,0.2)" stroke="#58a6ff" stroke-width="1"/><text x="383.5" y="833.6" text-anchor="middle" font-family="'Segoe UI', 'Inter', system-ui, -apple-system, Helvetica, Arial, sans-serif" font-size="9.5" font-weight="700" fill="#58a6ff">12</text>
<text x="453.5" y="835" text-anchor="start" font-family="'Segoe UI', 'Inter', system-ui, -apple-system, Helvetica, Arial, sans-serif" font-size="11.5" fill="#e6edf3">AUTHORIZE_SUCCESS → CAPTURE_REQUEST → CAPTURE_SUCCESS</text>
<circle cx="383.5" cy="876" r="9" fill="rgba(255,123,114,0.2)" stroke="#ff7b72" stroke-width="1"/><text x="383.5" y="879.6" text-anchor="middle" font-family="'Segoe UI', 'Inter', system-ui, -apple-system, Helvetica, Arial, sans-serif" font-size="9.5" font-weight="700" fill="#ff7b72">13</text>
<rect x="562.3" y="855.0" width="345.3" height="16" rx="4" fill="#0b0f17" opacity="0.85"/>
<text x="735.0" y="867" text-anchor="middle" font-family="'Segoe UI', 'Inter', system-ui, -apple-system, Helvetica, Arial, sans-serif" font-size="11.5" fill="#e6edf3">payment CAPTURED · order PAID · PAYMENT_STATUS_CHANGED</text>
<circle cx="383.5" cy="978" r="9" fill="rgba(227,179,65,0.2)" stroke="#e3b341" stroke-width="1"/><text x="383.5" y="981.6" text-anchor="middle" font-family="'Segoe UI', 'Inter', system-ui, -apple-system, Helvetica, Arial, sans-serif" font-size="9.5" font-weight="700" fill="#e3b341">14</text>
<rect x="727.6" y="957.0" width="239.8" height="16" rx="4" fill="#0b0f17" opacity="0.85"/>
<text x="847.5" y="969" text-anchor="middle" font-family="'Segoe UI', 'Inter', system-ui, -apple-system, Helvetica, Arial, sans-serif" font-size="11.5" fill="#e6edf3">publish PENDING rows → mark PUBLISHED</text></svg>