<svg xmlns="http://www.w3.org/2000/svg" width="1800" height="820" viewBox="0 0 1800 820"><defs><filter id="sh" x="-10%" y="-10%" width="120%" height="130%"><feDropShadow dx="0" dy="2" stdDeviation="3" flood-color="#000" flood-opacity="0.45"/></filter><pattern id="dots" width="22" height="22" patternUnits="userSpaceOnUse"><circle cx="1.2" cy="1.2" r="1.1" fill="#1a2232"/></pattern><marker id="a58a6ff" viewBox="0 0 10 10" refX="9" refY="5" markerWidth="7" markerHeight="7" orient="auto"><path d="M0,1 L9,5 L0,9 z" fill="#58a6ff"/></marker><marker id="a3fb950" viewBox="0 0 10 10" refX="9" refY="5" markerWidth="7" markerHeight="7" orient="auto"><path d="M0,1 L9,5 L0,9 z" fill="#3fb950"/></marker><marker id="a8b98a9" viewBox="0 0 10 10" refX="9" refY="5" markerWidth="7" markerHeight="7" orient="auto"><path d="M0,1 L9,5 L0,9 z" fill="#8b98a9"/></marker><marker id="aff7b72" viewBox="0 0 10 10" refX="9" refY="5" markerWidth="7" markerHeight="7" orient="auto"><path d="M0,1 L9,5 L0,9 z" fill="#ff7b72"/></marker></defs><rect width="1800" height="820" rx="18" fill="#0b0f17"/><rect width="1800" height="820" fill="url(#dots)"/><text x="36" y="46" font-family="'Segoe UI', 'Inter', system-ui, -apple-system, Helvetica, Arial, sans-serif" font-size="22" font-weight="700" fill="#e6edf3">Payment state machine — PaymentStatus × PaymentEvent</text><text x="36" y="70" font-family="'Segoe UI', 'Inter', system-ui, -apple-system, Helvetica, Arial, sans-serif" font-size="13" fill="#8b98a9">PaymentStateMachine&#x27;s transition table · every applied transition writes a payment_transition_log row</text>
<rect x="40" y="130" width="1720" height="560" rx="14" fill="rgba(63,185,80,0.055)" stroke="rgba(63,185,80,0.55)" stroke-width="1.4"/>
<rect x="52" y="119" width="161" height="22" rx="6" fill="#0b0f17" stroke="rgba(63,185,80,0.7)" stroke-width="1.1"/>
<g transform="translate(59.0,123.0) scale(0.5833)"><path d="M12 3l9 5-9 5-9-5z M3 13l9 5 9-5" fill="none" stroke="#3fb950" stroke-width="1.8" stroke-linejoin="round"/></g>
<text x="80" y="134" font-family="'Segoe UI', 'Inter', system-ui, -apple-system, Helvetica, Arial, sans-serif" font-size="11.5" font-weight="700" letter-spacing="0.9" fill="#3fb950">PAYMENT-SERVICE</text>
<rect x="217" y="122" width="291" height="16" fill="#0b0f17"/>
<text x="223" y="134" font-family="'Segoe UI', 'Inter', system-ui, -apple-system, Helvetica, Arial, sans-serif" font-size="11" fill="#8b98a9">PaymentTransitionService · undefined pair → 409</text>
<path d="M1385.0,338.0 L1385.0,461.0 Q1385.0,470.0 1394.0,470.0 L1606.0,470.0 Q1615.0,470.0 1615.0,479.0 L1615.0,500.0" fill="none" stroke="#8b98a9" stroke-width="1.6" stroke-dasharray="6 5" stroke-linecap="round" stroke-linejoin="round" marker-end="url(#a8b98a9)"/>
<path d="M1420.0,544.0 L1520.0,544.0" fill="none" stroke="#8b98a9" stroke-width="1.6" stroke-dasharray="6 5" stroke-linecap="round" stroke-linejoin="round" marker-end="url(#a8b98a9)"/>
<path d="M1575.0,338.0 L1575.0,411.0 Q1575.0,420.0 1566.0,420.0 L1374.0,420.0 Q1365.0,420.0 1365.0,429.0 L1365.0,500.0" fill="none" stroke="#8b98a9" stroke-width="1.6" stroke-dasharray="6 5" stroke-linecap="round" stroke-linejoin="round" marker-end="url(#a8b98a9)"/>
<path d="M1325.0,338.0 L1325.0,500.0" fill="none" stroke="#8b98a9" stroke-width="1.6" stroke-dasharray="6 5" stroke-linecap="round" stroke-linejoin="round" marker-end="url(#a8b98a9)"/>
<path d="M745.0,338.0 L745.0,500.0" fill="none" stroke="#8b98a9" stroke-width="1.6" stroke-dasharray="6 5" stroke-linecap="round" stroke-linejoin="round" marker-end="url(#a8b98a9)"/>
<path d="M395.0,338.0 L395.0,411.0 Q395.0,420.0 386.0,420.0 L234.0,420.0 Q225.0,420.0 225.0,429.0 L225.0,500.0" fill="none" stroke="#8b98a9" stroke-width="1.6" stroke-dasharray="6 5" stroke-linecap="round" stroke-linejoin="round" marker-end="url(#a8b98a9)"/>
<path d="M165.0,338.0 L165.0,500.0" fill="none" stroke="#8b98a9" stroke-width="1.6" stroke-dasharray="6 5" stroke-linecap="round" stroke-linejoin="round" marker-end="url(#a8b98a9)"/>
<path d="M455.0,338.0 L455.0,500.0" fill="none" stroke="#ff7b72" stroke-width="1.6" stroke-linecap="round" stroke-linejoin="round" marker-end="url(#aff7b72)"/>
<path d="M1035.0,250.0 L1035.0,199.0 Q1035.0,190.0 1026.0,190.0 L754.0,190.0 Q745.0,190.0 745.0,199.0 L745.0,250.0" fill="none" stroke="#ff7b72" stroke-width="1.6" stroke-linecap="round" stroke-linejoin="round" marker-end="url(#aff7b72)"/>
<path d="M1420.0,294.0 L1520.0,294.0" fill="none" stroke="#8b98a9" stroke-width="1.6" stroke-dasharray="6 5" stroke-linecap="round" stroke-linejoin="round" marker-end="url(#a8b98a9)"/>
<path d="M1130.0,294.0 L1230.0,294.0" fill="none" stroke="#3fb950" stroke-width="1.6" stroke-linecap="round" stroke-linejoin="round" marker-end="url(#a3fb950)"/>
<path d="M840.0,294.0 L940.0,294.0" fill="none" stroke="#3fb950" stroke-width="1.6" stroke-linecap="round" stroke-linejoin="round" marker-end="url(#a3fb950)"/>
<path d="M550.0,294.0 L650.0,294.0" fill="none" stroke="#3fb950" stroke-width="1.6" stroke-linecap="round" stroke-linejoin="round" marker-end="url(#a3fb950)"/>
<path d="M260.0,294.0 L360.0,294.0" fill="none" stroke="#58a6ff" stroke-width="1.6" stroke-linecap="round" stroke-linejoin="round" marker-end="url(#a58a6ff)"/>
<rect x="70" y="250" width="190" height="88" rx="11" fill="#121826" stroke="rgba(88,166,255,0.6)" stroke-width="1.3" filter="url(#sh)"/>
<rect x="71" y="251" width="188" height="3" rx="1.5" fill="rgba(88,166,255,0.85)"/>
<text x="165.0" y="280" text-anchor="middle" font-family="'Segoe UI', 'Inter', system-ui, -apple-system, Helvetica, Arial, sans-serif" font-size="13.5" font-weight="600" fill="#e6edf3">CREATED</text>
<text x="165.0" y="296" text-anchor="middle" font-family="'Segoe UI', 'Inter', system-ui, -apple-system, Helvetica, Arial, sans-serif" font-size="11" fill="#8b98a9">saved by recordPayment</text>
<rect x="360" y="250" width="190" height="88" rx="11" fill="#121826" stroke="rgba(227,179,65,0.6)" stroke-width="1.3" filter="url(#sh)"/>
<rect x="361" y="251" width="188" height="3" rx="1.5" fill="rgba(227,179,65,0.85)"/>
<text x="455.0" y="280" text-anchor="middle" font-family="'Segoe UI', 'Inter', system-ui, -apple-system, Helvetica, Arial, sans-serif" font-size="13.5" font-weight="600" fill="#e6edf3">AUTHORIZING</text>
<text x="455.0" y="296" text-anchor="middle" font-family="'Segoe UI', 'Inter', system-ui, -apple-system, Helvetica, Arial, sans-serif" font-size="11" fill="#8b98a9">at the acquirer</text>
<rect x="650" y="250" width="190" height="88" rx="11" fill="#121826" stroke="rgba(63,185,80,0.6)" stroke-width="1.3" filter="url(#sh)"/>
<rect x="651" y="251" width="188" height="3" rx="1.5" fill="rgba(63,185,80,0.85)"/>
<text x="745.0" y="280" text-anchor="middle" font-family="'Segoe UI', 'Inter', system-ui, -apple-system, Helvetica, Arial, sans-serif" font-size="13.5" font-weight="600" fill="#e6edf3">AUTHORIZED</text>
<text x="745.0" y="296" text-anchor="middle" font-family="'Segoe UI', 'Inter', system-ui, -apple-system, Helvetica, Arial, sans-serif" font-size="11" fill="#8b98a9">funds held</text>
<rect x="940" y="250" width="190" height="88" rx="11" fill="#121826" stroke="rgba(227,179,65,0.6)" stroke-width="1.3" filter="url(#sh)"/>
<rect x="941" y="251" width="188" height="3" rx="1.5" fill="rgba(227,179,65,0.85)"/>
<text x="1035.0" y="280" text-anchor="middle" font-family="'Segoe UI', 'Inter', system-ui, -apple-system, Helvetica, Arial, sans-serif" font-size="13.5" font-weight="600" fill="#e6edf3">CAPTURING</text>
<text x="1035.0" y="296" text-anchor="middle" font-family="'Segoe UI', 'Inter', system-ui, -apple-system, Helvetica, Arial, sans-serif" font-size="11" fill="#8b98a9">capture in flight</text>
<rect x="1230" y="250" width="190" height="88" rx="11" fill="#121826" stroke="rgba(63,185,80,0.6)" stroke-width="1.3" filter="url(#sh)"/>
<rect x="1231" y="251" width="188" height="3" rx="1.5" fill="rgba(63,185,80,0.85)"/>
<text x="1325.0" y="280" text-anchor="middle" font-family="'Segoe UI', 'Inter', system-ui, -apple-system, Helvetica, Arial, sans-serif" font-size="13.5" font-weight="600" fill="#e6edf3">CAPTURED</text>
<text x="1325.0" y="296" text-anchor="middle" font-family="'Segoe UI', 'Inter', system-ui, -apple-system, Helvetica, Arial, sans-serif" font-size="11" fill="#8b98a9">money taken</text>
<rect x="1520" y="250" width="190" height="88" rx="11" fill="#121826" stroke="rgba(57,197,207,0.6)" stroke-width="1.3" filter="url(#sh)"/>
<rect x="1521" y="251" width="188" height="3" rx="1.5" fill="rgba(57,197,207,0.85)"/>
<text x="1615.0" y="280" text-anchor="middle" font-family="'Segoe UI', 'Inter', system-ui, -apple-system, Helvetica, Arial, sans-serif" font-size="13.5" font-weight="600" fill="#e6edf3">SETTLED</text>
<text x="1615.0" y="296" text-anchor="middle" font-family="'Segoe UI', 'Inter', system-ui, -apple-system, Helvetica, Arial, sans-serif" font-size="11" fill="#8b98a9">paid out to merchant</text>
<rect x="1673.6" y="258" width="28.4" height="16" rx="8" fill="rgba(57,197,207,0.18)"/>
<text x="1687.8" y="269.5" text-anchor="middle" font-family="'Segoe UI', 'Inter', system-ui, -apple-system, Helvetica, Arial, sans-serif" font-size="9.5" font-weight="700" fill="#39c5cf">END</text>
<rect x="70" y="500" width="190" height="88" rx="11" fill="#121826" stroke="rgba(139,152,169,0.6)" stroke-width="1.3" filter="url(#sh)"/>
<rect x="71" y="501" width="188" height="3" rx="1.5" fill="rgba(139,152,169,0.85)"/>
<text x="165.0" y="530" text-anchor="middle" font-family="'Segoe UI', 'Inter', system-ui, -apple-system, Helvetica, Arial, sans-serif" font-size="13.5" font-weight="600" fill="#e6edf3">CANCELLED</text>
<rect x="223.6" y="508" width="28.4" height="16" rx="8" fill="rgba(139,152,169,0.18)"/>
<text x="237.8" y="519.5" text-anchor="middle" font-family="'Segoe UI', 'Inter', system-ui, -apple-system, Helvetica, Arial, sans-serif" font-size="9.5" font-weight="700" fill="#8b98a9">END</text>
<rect x="360" y="500" width="190" height="88" rx="11" fill="#121826" stroke="rgba(255,123,114,0.6)" stroke-width="1.3" filter="url(#sh)"/>
<rect x="361" y="501" width="188" height="3" rx="1.5" fill="rgba(255,123,114,0.85)"/>
<text x="455.0" y="530" text-anchor="middle" font-family="'Segoe UI', 'Inter', system-ui, -apple-system, Helvetica, Arial, sans-serif" font-size="13.5" font-weight="600" fill="#e6edf3">FAILED</text>
<text x="455.0" y="546" text-anchor="middle" font-family="'Segoe UI', 'Inter', system-ui, -apple-system, Helvetica, Arial, sans-serif" font-size="11" fill="#8b98a9">errorCode set</text>
<rect x="513.6" y="508" width="28.4" height="16" rx="8" fill="rgba(255,123,114,0.18)"/>
<text x="527.8" y="519.5" text-anchor="middle" font-family="'Segoe UI', 'Inter', system-ui, -apple-system, Helvetica, Arial, sans-serif" font-size="9.5" font-weight="700" fill="#ff7b72">END</text>
<rect x="650" y="500" width="190" height="88" rx="11" fill="#121826" stroke="rgba(139,152,169,0.6)" stroke-width="1.3" filter="url(#sh)"/>
<rect x="651" y="501" width="188" height="3" rx="1.5" fill="rgba(139,152,169,0.85)"/>
<text x="745.0" y="530" text-anchor="middle" font-family="'Segoe UI', 'Inter', system-ui, -apple-system, Helvetica, Arial, sans-serif" font-size="13.5" font-weight="600" fill="#e6edf3">AUTH_EXPIRED</text>
<text x="745.0" y="546" text-anchor="middle" font-family="'Segoe UI', 'Inter', system-ui, -apple-system, Helvetica, Arial, sans-serif" font-size="11" fill="#8b98a9">hold lapsed</text>
<rect x="803.6" y="508" width="28.4" height="16" rx="8" fill="rgba(139,152,169,0.18)"/>
<text x="817.8" y="519.5" text-anchor="middle" font-family="'Segoe UI', 'Inter', system-ui, -apple-system, Helvetica, Arial, sans-serif" font-size="9.5" font-weight="700" fill="#8b98a9">END</text>
<rect x="1230" y="500" width="190" height="88" rx="11" fill="#121826" stroke="rgba(240,136,62,0.6)" stroke-width="1.3" filter="url(#sh)"/>
<rect x="1231" y="501" width="188" height="3" rx="1.5" fill="rgba(240,136,62,0.85)"/>
<text x="1325.0" y="530" text-anchor="middle" font-family="'Segoe UI', 'Inter', system-ui, -apple-system, Helvetica, Arial, sans-serif" font-size="13.5" font-weight="600" fill="#e6edf3">PARTIALLY_REFUNDED</text>
<text x="1325.0" y="546" text-anchor="middle" font-family="'Segoe UI', 'Inter', system-ui, -apple-system, Helvetica, Arial, sans-serif" font-size="11" fill="#8b98a9">refund in progress</text>
<rect x="1520" y="500" width="190" height="88" rx="11" fill="#121826" stroke="rgba(240,136,62,0.6)" stroke-width="1.3" filter="url(#sh)"/>
<rect x="1521" y="501" width="188" height="3" rx="1.5" fill="rgba(240,136,62,0.85)"/>
<text x="1615.0" y="530" text-anchor="middle" font-family="'Segoe UI', 'Inter', system-ui, -apple-system, Helvetica, Arial, sans-serif" font-size="13.5" font-weight="600" fill="#e6edf3">REFUNDED</text>
<rect x="1673.6" y="508" width="28.4" height="16" rx="8" fill="rgba(240,136,62,0.18)"/>
<text x="1687.8" y="519.5" text-anchor="middle" font-family="'Segoe UI', 'Inter', system-ui, -apple-system, Helvetica, Arial, sans-serif" font-size="9.5" font-weight="700" fill="#f0883e">END</text>
<rect x="259.4" y="263.0" width="101.2" height="18" rx="9" fill="#0b0f17" stroke="rgba(88,166,255,0.35)" stroke-width="1"/>
<text x="310.0" y="275.6" text-anchor="middle" font-family="'Segoe UI', 'Inter', system-ui, -apple-system, Helvetica, Arial, sans-serif" font-size="9.5" fill="#58a6ff">AUTHORIZE_ATTEMPT</text>
<rect x="549.4" y="263.0" width="101.2" height="18" rx="9" fill="#0b0f17" stroke="rgba(63,185,80,0.35)" stroke-width="1"/>
<text x="600.0" y="275.6" text-anchor="middle" font-family="'Segoe UI', 'Inter', system-ui, -apple-system, Helvetica, Arial, sans-serif" font-size="9.5" fill="#3fb950">AUTHORIZE_SUCCESS</text>
<rect x="844.5" y="263.0" width="91.0" height="18" rx="9" fill="#0b0f17" stroke="rgba(63,185,80,0.35)" stroke-width="1"/>
<text x="890.0" y="275.6" text-anchor="middle" font-family="'Segoe UI', 'Inter', system-ui, -apple-system, Helvetica, Arial, sans-serif" font-size="9.5" fill="#3fb950">CAPTURE_REQUEST</text>
<rect x="1134.5" y="263.0" width="91.0" height="18" rx="9" fill="#0b0f17" stroke="rgba(63,185,80,0.35)" stroke-width="1"/>
<text x="1180.0" y="275.6" text-anchor="middle" font-family="'Segoe UI', 'Inter', system-ui, -apple-system, Helvetica, Arial, sans-serif" font-size="9.5" fill="#3fb950">CAPTURE_SUCCESS</text>
<rect x="1447.6" y="263.0" width="44.8" height="18" rx="9" fill="#0b0f17" stroke="rgba(139,152,169,0.35)" stroke-width="1"/>
<text x="1470.0" y="275.6" text-anchor="middle" font-family="'Segoe UI', 'Inter', system-ui, -apple-system, Helvetica, Arial, sans-serif" font-size="9.5" fill="#8b98a9">SETTLE</text>
<rect x="815.0" y="181.0" width="150.1" height="18" rx="9" fill="#0b0f17" stroke="rgba(255,123,114,0.35)" stroke-width="1"/>
<text x="890.0" y="193.6" text-anchor="middle" font-family="'Segoe UI', 'Inter', system-ui, -apple-system, Helvetica, Arial, sans-serif" font-size="10.5" fill="#ff7b72">CAPTURE_FAIL · retryable</text>
<rect x="408.3" y="431.0" width="93.4" height="18" rx="9" fill="#0b0f17" stroke="rgba(255,123,114,0.35)" stroke-width="1"/>
<text x="455.0" y="443.6" text-anchor="middle" font-family="'Segoe UI', 'Inter', system-ui, -apple-system, Helvetica, Arial, sans-serif" font-size="10.5" fill="#ff7b72">AUTHORIZE_FAIL</text>
<rect x="141.0" y="431.0" width="48.0" height="18" rx="9" fill="#0b0f17" stroke="rgba(139,152,169,0.35)" stroke-width="1"/>
<text x="165.0" y="443.6" text-anchor="middle" font-family="'Segoe UI', 'Inter', system-ui, -apple-system, Helvetica, Arial, sans-serif" font-size="10.5" fill="#8b98a9">CANCEL</text>
<rect x="695.5" y="431.0" width="99.1" height="18" rx="9" fill="#0b0f17" stroke="rgba(139,152,169,0.35)" stroke-width="1"/>
<text x="745.0" y="443.6" text-anchor="middle" font-family="'Segoe UI', 'Inter', system-ui, -apple-system, Helvetica, Arial, sans-serif" font-size="10.5" fill="#8b98a9">CAPTURE_TIMEOUT</text>
<rect x="1286.8" y="431.0" width="76.4" height="18" rx="9" fill="#0b0f17" stroke="rgba(139,152,169,0.35)" stroke-width="1"/>
<text x="1325.0" y="443.6" text-anchor="middle" font-family="'Segoe UI', 'Inter', system-ui, -apple-system, Helvetica, Arial, sans-serif" font-size="10.5" fill="#8b98a9">REFUND_INIT</text>
<rect x="1424.5" y="513.0" width="91.0" height="18" rx="9" fill="#0b0f17" stroke="rgba(139,152,169,0.35)" stroke-width="1"/>
<text x="1470.0" y="525.6" text-anchor="middle" font-family="'Segoe UI', 'Inter', system-ui, -apple-system, Helvetica, Arial, sans-serif" font-size="9.5" fill="#8b98a9">REFUND_COMPLETE</text>
<rect x="1485.8" y="461.0" width="178.4" height="18" rx="9" fill="#0b0f17" stroke="rgba(139,152,169,0.35)" stroke-width="1"/>
<text x="1575.0" y="473.6" text-anchor="middle" font-family="'Segoe UI', 'Inter', system-ui, -apple-system, Helvetica, Arial, sans-serif" font-size="10.5" fill="#8b98a9">REFUND_COMPLETE · full refund</text>
<rect x="70" y="715" width="457" height="72" rx="9" fill="#0b0f17" stroke="rgba(63,185,80,0.55)" stroke-width="1.1"/>
<text x="82" y="735" font-family="'Segoe UI', 'Inter', system-ui, -apple-system, Helvetica, Arial, sans-serif" font-size="11" font-weight="700" letter-spacing="0.5" fill="#3fb950">WHO FIRES WHAT</text>
<text x="82" y="755" font-family="'Segoe UI', 'Inter', system-ui, -apple-system, Helvetica, Arial, sans-serif" font-size="11" fill="#e6edf3">AUTHORIZE_ATTEMPT / _FAIL — the payment saga (POST /v1/payments)</text>
<text x="82" y="774" font-family="'Segoe UI', 'Inter', system-ui, -apple-system, Helvetica, Arial, sans-serif" font-size="11" fill="#e6edf3">AUTHORIZE_SUCCESS, CAPTURE_* — BankCallbackSimulator, and POST …/capture</text>
<rect x="900" y="715" width="374" height="72" rx="9" fill="#0b0f17" stroke="rgba(139,152,169,0.55)" stroke-width="1.1"/>
<text x="912" y="735" font-family="'Segoe UI', 'Inter', system-ui, -apple-system, Helvetica, Arial, sans-serif" font-size="11" font-weight="700" letter-spacing="0.5" fill="#8b98a9">DEFINED BUT NEVER FIRED</text>
<text x="912" y="755" font-family="'Segoe UI', 'Inter', system-ui, -apple-system, Helvetica, Arial, sans-serif" font-size="11" fill="#e6edf3">SETTLED is set directly by /internal/payments/mark-settled</text>
<text x="912" y="774" font-family="'Segoe UI', 'Inter', system-ui, -apple-system, Helvetica, Arial, sans-serif" font-size="11" fill="#e6edf3">CANCEL, CAPTURE_TIMEOUT, REFUND_* — no caller yet</text></svg>